<svg width="16" height="16" viewBox="0 0 16 16" fill="none" xmlns="http://www.w3.org/2000/svg">
<g id="sms">
<g id="vuesax/outline/sms">
<g id="sms_2">
<path id="Vector" d="M11.333 14.1663H4.66634C2.23301 14.1663 0.833008 12.7663 0.833008 10.333V5.66634C0.833008 3.23301 2.23301 1.83301 4.66634 1.83301H11.333C13.7663 1.83301 15.1663 3.23301 15.1663 5.66634V10.333C15.1663 12.7663 13.7663 14.1663 11.333 14.1663ZM4.66634 2.83301C2.75967 2.83301 1.83301 3.75967 1.83301 5.66634V10.333C1.83301 12.2397 2.75967 13.1663 4.66634 13.1663H11.333C13.2397 13.1663 14.1663 12.2397 14.1663 10.333V5.66634C14.1663 3.75967 13.2397 2.83301 11.333 2.83301H4.66634Z" fill="currentColor"/>
<path id="Vector_2" d="M8.00018 8.57998C7.44018 8.57998 6.87351 8.40665 6.44018 8.05331L4.35351 6.38665C4.14018 6.21331 4.10018 5.89998 4.27351 5.68665C4.44685 5.47331 4.76018 5.43332 4.97352 5.60665L7.06018 7.27332C7.56684 7.67998 8.42684 7.67998 8.93351 7.27332L11.0202 5.60665C11.2335 5.43332 11.5535 5.46665 11.7202 5.68665C11.8935 5.89998 11.8602 6.21998 11.6402 6.38665L9.55351 8.05331C9.12685 8.40665 8.56018 8.57998 8.00018 8.57998Z" fill="currentColor"/>
</g>
</g>
</g>
</svg>
